<svg width="249" height="443" viewBox="0 0 249 443" fill="none" xmlns="http://www.w3.org/2000/svg">
<path d="M124.991 20.449C127.672 13.9557 127.002 6.89065 126.196 -3.36842e-06C127.157 2.41318 128.255 4.73914 129.323 7.02633C129.79 8.02455 130.266 9.03246 130.722 10.0404C134.763 18.9372 138.134 27.6692 135.016 36.6532C131.363 47.1781 122.631 56.482 115.423 63.4017C115.161 63.6537 114.85 63.8572 114.549 64.0608C113.956 64.4678 113.228 64.9814 112.567 65.6986C100.629 78.7046 87.8747 104.678 101.659 122.869C106.137 128.781 112.276 133.025 117.667 136.534C133.986 147.146 148.217 159.716 141.99 179.535C141.844 180.01 141.611 180.494 141.339 181.056C141.028 181.706 140.718 182.355 140.475 183.053C140.378 183.334 140.232 183.702 140.067 184.109C139.057 186.639 138.367 188.567 138.6 190.215C138.755 191.329 139.494 192.27 140.543 192.696C143.845 194.043 146.478 191.116 147.886 189.537C148.11 189.285 148.314 189.052 148.479 188.897C149.528 187.928 150.354 186.862 151.16 185.834C152.083 184.642 152.967 183.518 153.977 182.869C164.818 175.93 175.512 175.765 184.915 182.365C199.379 192.531 207.908 217.119 203.508 236.056C201.38 245.263 195.387 256.795 178.961 259.432L166.887 261.37C165.167 261.641 163.982 263.24 164.264 264.975C164.526 266.691 166.139 267.873 167.858 267.621C178.193 266.09 189.918 264.365 200.224 267.824C206.791 270.034 213.289 274.541 220.099 281.606C244.587 307.007 254.69 345.482 245.84 379.596C241.683 395.646 233.115 408.778 218.904 420.94C209.754 428.771 197.407 438.191 183.05 441.612C162.195 446.584 138.551 437.92 124.224 420.058C110.809 403.341 105.816 379.722 110.877 356.899C112.315 350.396 114.49 344.533 117.269 339.406C119.736 336.547 121.999 333.358 123.991 329.84C124.641 329.123 125.292 328.416 125.982 327.757C141.242 313.21 165.556 315.342 179.32 325.654C191.482 334.764 194.134 348.264 186.606 362.694C184.265 367.191 179.233 372.454 173.745 373.394C170.879 373.888 168.353 373.074 166.041 370.913C164.759 369.721 162.758 369.789 161.563 371.068C160.369 372.337 160.437 374.344 161.719 375.536C165.468 379.034 170.005 380.449 174.813 379.625C182.477 378.317 189.073 371.649 192.22 365.612C201.186 348.419 197.786 331.594 183.118 320.604C169.432 310.351 146.663 307.211 129.333 317.387C132.374 307.589 133.51 295.988 131.771 282.507C129.984 268.571 121.659 249.973 104.087 243.441C85.2422 236.424 65.4844 247.763 56.4603 262C50.5155 271.381 49.1167 284.581 53.0507 294.098C56.0523 301.347 61.696 306.116 69.3893 307.86C81.3373 310.583 93.6447 303.499 96.2577 292.402C97.6953 286.277 96.8211 280.53 93.9069 277.022C92.3527 275.151 89.458 272.98 84.436 273.203C81.3276 273.339 78.2483 275.122 76.4027 277.865C74.7028 280.385 74.2559 283.331 75.1885 285.967C75.7713 287.614 77.5781 288.477 79.2294 287.895C80.8808 287.314 81.7453 285.511 81.1624 283.864C80.7933 282.837 81.3859 281.8 81.6579 281.402C82.3961 280.307 83.6006 279.571 84.7274 279.522C86.6993 279.435 88.1078 279.939 89.0403 281.063C90.6431 283.001 91.0705 286.878 90.1088 290.958C88.0884 299.545 78.5009 303.45 70.8173 301.696C65.1444 300.407 61.1423 297.035 58.9276 291.685C55.722 283.951 56.9265 273.126 61.8417 265.372C69.535 253.239 86.1845 243.508 101.901 249.352C116.822 254.906 123.952 271.11 125.516 283.302C127.808 301.173 124.68 315.39 118.735 326.177C116.278 328.968 114.092 332.137 112.159 335.597C106.768 341.771 100.347 346.19 93.8778 348.933C73.8091 357.422 46.3094 352.237 26.8721 338.107C26.7847 337.836 26.6681 337.564 26.4933 337.312C25.9201 336.469 25.007 336.004 24.0648 335.946C19.7616 332.476 15.9344 328.551 12.7677 324.21C-0.928751 305.408 -4.10518 274.415 5.67661 255.119C12.5345 241.599 25.007 230.338 41.0348 223.137C42.1033 226.616 43.6089 229.756 45.5226 232.48C50.2629 239.225 57.8008 243.431 65.2027 243.45C66.9512 243.46 68.3694 242.045 68.3791 240.301V240.291C68.3791 238.546 66.9706 237.141 65.2221 237.131C59.8407 237.112 54.2844 233.943 50.7 228.845C47.543 224.348 45.7266 218.291 45.4643 211.313C44.8717 196.33 51.2051 182.452 65.3484 167.556C66.5529 166.287 66.4946 164.29 65.2318 163.088C63.9593 161.887 61.9583 161.945 60.7538 163.214C46.2025 178.537 39.1017 193.704 39.1017 209.511C39.1017 210.189 39.1115 210.877 39.1406 211.556C39.2086 213.281 39.3737 214.957 39.6069 216.595C29.1548 218.882 19.0039 208.328 14.419 201.273C6.88112 189.653 5.60863 173.565 11.1261 159.28C16.2161 146.09 27.9503 134.663 44.1918 127.046C49.6218 131.853 56.8877 133.849 63.1725 133.103C71.2835 132.143 80.0648 126.3 80.3659 112.809C80.4048 111.161 80.1522 105.376 75.3342 100.888C71.3709 97.196 65.6981 95.6647 58.4808 96.3431C56.742 96.5079 55.4598 98.0779 55.6249 99.7836C55.79 101.518 57.3345 102.798 59.0733 102.633C64.4159 102.139 68.4277 103.108 71.0212 105.511C73.3234 107.653 74.0811 110.648 74.0422 112.664C73.78 124.235 65.8341 126.426 62.4343 126.833C54.9061 127.724 45.6391 123.053 43.1427 113.691C39.8983 101.509 44.2209 82.1257 55.6055 73.791C58.2768 71.8333 60.4138 72.1628 63.6388 72.6668C66.2518 73.0738 69.2048 73.5293 72.6726 72.6377C81.143 70.4474 80.7253 62.8106 80.4728 58.2556C80.3853 56.7728 80.3951 55.3965 80.2979 53.7974C80.2299 52.6732 80.1522 51.4036 80.3659 50.7058C82.2407 44.4161 88.3312 42.8558 97.4136 41.1791C99.7935 40.743 102.047 40.3263 104.174 39.7448C113.772 37.099 120.785 30.6057 124.991 20.449Z" fill="#AC424D"/>
</svg>
