<svg width="48" height="381" viewBox="0 0 48 381" fill="none" xmlns="http://www.w3.org/2000/svg">
<rect x="21" y="24" width="5" height="325" fill="#AC424D"/>
<circle cx="24" cy="357" r="23.5" fill="#AC424D" stroke="#AC424D"/>
<path d="M17.4131 361.136V359.48L25.8371 347.816H28.4531V359.24H30.8531V361.136H28.4531V365H26.2931V361.136H17.4131ZM26.3891 350.096L19.9331 359.24H26.3891V350.096Z" fill="white"/>
<circle cx="24" cy="246" r="23.5" fill="#AC424D" stroke="#AC424D"/>
<path d="M18.8736 241.016C18.9856 239.544 19.5536 238.392 20.5776 237.56C21.6016 236.728 22.9296 236.312 24.5616 236.312C25.6496 236.312 26.5856 236.512 27.3696 236.912C28.1696 237.296 28.7696 237.824 29.1696 238.496C29.5856 239.168 29.7936 239.928 29.7936 240.776C29.7936 241.768 29.5056 242.624 28.9296 243.344C28.3696 244.064 27.6336 244.528 26.7216 244.736V244.856C27.7616 245.112 28.5856 245.616 29.1936 246.368C29.8016 247.12 30.1056 248.104 30.1056 249.32C30.1056 250.232 29.8976 251.056 29.4816 251.792C29.0656 252.512 28.4416 253.08 27.6096 253.496C26.7776 253.912 25.7776 254.12 24.6096 254.12C22.9136 254.12 21.5216 253.68 20.4336 252.8C19.3456 251.904 18.7376 250.64 18.6096 249.008H20.7216C20.8336 249.968 21.2256 250.752 21.8976 251.36C22.5696 251.968 23.4656 252.272 24.5856 252.272C25.7056 252.272 26.5536 251.984 27.1296 251.408C27.7216 250.816 28.0176 250.056 28.0176 249.128C28.0176 247.928 27.6176 247.064 26.8176 246.536C26.0176 246.008 24.8096 245.744 23.1936 245.744H22.6416V243.92H23.2176C24.6896 243.904 25.8016 243.664 26.5536 243.2C27.3056 242.72 27.6816 241.984 27.6816 240.992C27.6816 240.144 27.4016 239.464 26.8416 238.952C26.2976 238.44 25.5136 238.184 24.4896 238.184C23.4976 238.184 22.6976 238.44 22.0896 238.952C21.4816 239.464 21.1216 240.152 21.0096 241.016H18.8736Z" fill="white"/>
<circle cx="24" cy="135" r="23.5" fill="#AC424D" stroke="#AC424D"/>
<path d="M18.3217 141.248C20.3537 139.616 21.9457 138.28 23.0977 137.24C24.2497 136.184 25.2177 135.088 26.0017 133.952C26.8017 132.8 27.2017 131.672 27.2017 130.568C27.2017 129.528 26.9457 128.712 26.4337 128.12C25.9377 127.512 25.1297 127.208 24.0097 127.208C22.9217 127.208 22.0737 127.552 21.4657 128.24C20.8737 128.912 20.5537 129.816 20.5057 130.952H18.3937C18.4577 129.16 19.0017 127.776 20.0257 126.8C21.0497 125.824 22.3697 125.336 23.9857 125.336C25.6337 125.336 26.9377 125.792 27.8977 126.704C28.8737 127.616 29.3617 128.872 29.3617 130.472C29.3617 131.8 28.9617 133.096 28.1617 134.36C27.3777 135.608 26.4817 136.712 25.4737 137.672C24.4657 138.616 23.1777 139.72 21.6097 140.984H29.8657V142.808H18.3217V141.248Z" fill="white"/>
<circle cx="24" cy="24" r="23.5" fill="#AC424D" stroke="#AC424D"/>
<path d="M21.0683 16.64V14.648H25.5803V32H23.3723V16.64H21.0683Z" fill="white"/>
</svg>
