<svg width="249" height="443" viewBox="0 0 249 443" fill="none" xmlns="http://www.w3.org/2000/svg">
<path d="M124.009 20.449C121.328 13.9557 121.998 6.89066 122.804 0C121.843 2.41318 120.745 4.73914 119.677 7.02634C119.21 8.02457 118.734 9.03247 118.278 10.0404C114.237 18.9372 110.866 27.6692 113.984 36.6532C117.637 47.1781 126.369 56.482 133.577 63.4017C133.839 63.6537 134.15 63.8572 134.451 64.0608C135.044 64.4678 135.772 64.9814 136.433 65.6986C148.371 78.7046 161.125 104.678 147.341 122.869C142.863 128.781 136.724 133.025 131.333 136.534C115.014 147.146 100.783 159.716 107.01 179.535C107.156 180.01 107.389 180.494 107.661 181.056C107.972 181.706 108.282 182.355 108.525 183.053C108.622 183.334 108.768 183.702 108.933 184.109C109.943 186.639 110.633 188.567 110.4 190.215C110.245 191.329 109.506 192.27 108.457 192.696C105.155 194.043 102.522 191.116 101.114 189.537C100.89 189.285 100.686 189.052 100.521 188.897C99.4719 187.928 98.6463 186.862 97.84 185.834C96.9172 184.642 96.0333 183.518 95.023 182.869C84.1824 175.93 73.4876 175.765 64.0846 182.365C49.6208 192.531 41.0921 217.119 45.4924 236.056C47.6198 245.263 53.6132 256.795 70.0392 259.432L82.1134 261.37C83.8327 261.641 85.0178 263.24 84.7361 264.975C84.4739 266.691 82.8614 267.873 81.142 267.621C70.8066 266.09 59.082 264.365 48.7757 267.824C42.2092 270.034 35.7107 274.541 28.9013 281.606C4.41284 307.007 -5.68951 345.482 3.15975 379.596C7.31725 395.646 15.8848 408.778 30.0961 420.94C39.2465 428.771 51.5927 438.191 65.9497 441.612C86.8052 446.584 110.449 437.92 124.776 420.058C138.191 403.341 143.184 379.722 138.123 356.899C136.685 350.396 134.51 344.533 131.731 339.406C129.264 336.547 127.001 333.358 125.009 329.84C124.359 329.123 123.708 328.416 123.018 327.757C107.758 313.21 83.4442 315.342 69.6798 325.654C57.5181 334.764 54.8662 348.264 62.3944 362.694C64.7354 367.191 69.7672 372.454 75.2555 373.394C78.121 373.888 80.6466 373.074 82.9585 370.913C84.2407 369.721 86.2418 369.789 87.4366 371.068C88.6314 372.337 88.5634 374.344 87.2811 375.536C83.5316 379.034 78.9953 380.449 74.187 379.625C66.5228 378.317 59.9271 371.649 56.7799 365.612C47.814 348.419 51.2138 331.594 65.8817 320.604C79.5684 310.351 102.338 307.211 119.667 317.387C116.626 307.589 115.49 295.988 117.229 282.507C119.016 268.571 127.341 249.973 144.913 243.441C163.758 236.424 183.516 247.763 192.54 262C198.485 271.381 199.883 284.581 195.949 294.098C192.948 301.347 187.304 306.116 179.611 307.86C167.663 310.583 155.355 303.499 152.742 292.402C151.305 286.277 152.179 280.53 155.093 277.022C156.647 275.151 159.542 272.98 164.564 273.203C167.672 273.339 170.752 275.122 172.597 277.865C174.297 280.385 174.744 283.331 173.812 285.967C173.229 287.614 171.422 288.477 169.771 287.895C168.119 287.314 167.255 285.511 167.838 283.864C168.207 282.837 167.614 281.8 167.342 281.402C166.604 280.307 165.399 279.571 164.273 279.522C162.301 279.435 160.892 279.939 159.96 281.063C158.357 283.001 157.929 286.878 158.891 290.958C160.912 299.545 170.499 303.45 178.183 301.696C183.856 300.407 187.858 297.035 190.072 291.685C193.278 283.951 192.073 273.126 187.158 265.372C179.465 253.239 162.816 243.508 147.099 249.352C132.178 254.906 125.048 271.11 123.484 283.302C121.192 301.173 124.32 315.39 130.265 326.177C132.722 328.968 134.908 332.137 136.841 335.597C142.232 341.771 148.653 346.19 155.122 348.933C175.191 357.422 202.691 352.237 222.128 338.107C222.215 337.836 222.332 337.564 222.507 337.312C223.08 336.469 223.993 336.004 224.935 335.946C229.238 332.476 233.066 328.551 236.232 324.21C249.929 305.408 253.105 274.415 243.323 255.119C236.465 241.599 223.993 230.338 207.965 223.137C206.897 226.616 205.391 229.756 203.477 232.48C198.737 239.225 191.199 243.431 183.797 243.45C182.049 243.46 180.631 242.045 180.621 240.301V240.291C180.621 238.546 182.029 237.141 183.778 237.131C189.159 237.112 194.716 233.943 198.3 228.845C201.457 224.348 203.273 218.291 203.536 211.313C204.128 196.33 197.795 182.452 183.652 167.556C182.447 166.287 182.505 164.29 183.768 163.088C185.041 161.887 187.042 161.945 188.246 163.214C202.797 178.537 209.898 193.704 209.898 209.511C209.898 210.189 209.889 210.877 209.859 211.556C209.791 213.281 209.626 214.957 209.393 216.595C219.845 218.882 229.996 208.328 234.581 201.273C242.119 189.653 243.391 173.565 237.874 159.28C232.784 146.09 221.05 134.663 204.808 127.046C199.378 131.853 192.112 133.849 185.827 133.103C177.716 132.143 168.935 126.3 168.634 112.809C168.595 111.161 168.848 105.376 173.666 100.888C177.629 97.196 183.302 95.6647 190.519 96.3431C192.258 96.5079 193.54 98.0779 193.375 99.7836C193.21 101.518 191.665 102.798 189.927 102.633C184.584 102.139 180.572 103.108 177.979 105.511C175.677 107.653 174.919 110.648 174.958 112.664C175.22 124.235 183.166 126.426 186.566 126.833C194.094 127.724 203.361 123.053 205.857 113.691C209.102 101.509 204.779 82.1257 193.395 73.791C190.723 71.8333 188.586 72.1628 185.361 72.6668C182.748 73.0739 179.795 73.5293 176.327 72.6377C167.857 70.4474 168.275 62.8105 168.527 58.2556C168.615 56.7728 168.605 55.3965 168.702 53.7974C168.77 52.6732 168.848 51.4036 168.634 50.7058C166.759 44.4161 160.669 42.8558 151.586 41.1791C149.207 40.743 146.953 40.3263 144.826 39.7448C135.228 37.099 128.215 30.6057 124.009 20.449Z" fill="#D49A47"/>
</svg>
